<svg width="35" height="49" viewBox="0 0 35 49" fill="none" xmlns="http://www.w3.org/2000/svg">
<g clip-path="url(#clip0_627_34591)">
<path d="M1 43L3.5 23L9 21H32.5L33.5 37L32.5 45.5L26.5 47.5H3.5L1 43Z" fill="#92D3F5" stroke="#1C3458"/>
<path d="M19.0413 0.126953C19.5245 0.217398 20.0084 0.303763 20.4905 0.399109C24.633 1.21965 27.3376 3.6325 28.6557 7.54066C29.3076 9.4735 29.5713 11.4825 29.7038 13.5072C29.8132 15.1795 29.903 16.8531 30.0051 18.5258C30.0199 18.7671 30.0547 19.0072 30.0845 19.2898C30.393 19.4011 30.6799 19.532 30.9803 19.6085C33.1293 20.1545 34.1053 21.6502 34.4272 23.6757C34.4984 24.1249 34.5561 24.5761 34.5818 25.0285C34.9076 30.7832 35.003 36.5399 34.6443 42.2959C34.588 43.6992 34.1443 45.061 33.3601 46.2363C32.7393 47.1851 31.7876 47.8803 30.6826 48.1927C28.8974 48.6884 27.0491 48.9313 25.1936 48.914C19.4218 48.9171 13.65 48.8705 7.87822 48.7747C6.6673 48.738 5.46236 48.593 4.27843 48.3413C1.77842 47.8466 0.501758 46.4834 0.208424 44.005C0.0798949 42.8602 0.0329024 41.7083 0.0677955 40.5572C0.177171 36.1254 0.304881 31.6938 0.478422 27.2642C0.553631 25.3395 0.840502 23.4562 1.96238 21.7731C2.78447 20.5397 3.85113 19.7098 5.30697 19.3529C5.58134 19.2858 5.84863 19.1869 6.23488 19.067C6.28738 18.5997 6.35072 18.0936 6.4003 17.5858C6.61843 15.3635 6.72863 13.1244 7.08322 10.9233C7.33263 9.37485 7.7647 7.86009 8.37072 6.40937C9.71822 3.20252 12.3603 1.42647 15.6936 0.542015C16.303 0.380315 16.9253 0.264542 17.5416 0.127751L19.0413 0.126953ZM16.3772 46.7364C16.3772 46.6898 16.3791 46.6432 16.3801 46.5969C18.198 46.5969 20.018 46.6473 21.8336 46.5842C24.1805 46.5026 26.537 46.5205 28.8559 46.0354C30.6943 45.651 31.4649 44.9485 31.6747 43.1424C31.7955 41.9631 31.8524 40.7784 31.8451 39.5932C31.8543 38.3016 31.6805 37.0023 31.7726 35.7193C32.0086 32.4294 31.7376 29.1578 31.5607 25.8811C31.5288 25.289 31.5116 24.6923 31.4328 24.1049C31.3286 23.3227 30.9726 22.7165 30.0928 22.5555C28.5553 22.2747 27.0303 21.8354 25.4801 21.7355C22.3878 21.5361 19.2836 21.4969 16.1832 21.4368C12.963 21.3744 9.78738 21.8227 6.62072 22.3399C6.21628 22.3921 5.82863 22.5314 5.48555 22.7476C5.14247 22.9638 4.8524 23.2519 4.63613 23.5908C3.87322 24.7247 3.70759 26.0147 3.63801 27.2895C3.35572 32.4496 3.14467 37.6134 2.92176 42.7763C2.89926 43.2968 2.9778 43.8213 3.00217 44.3441C3.04572 45.2719 3.54259 45.8421 4.45176 46.0356C5.20949 46.2263 5.98232 46.3537 6.76197 46.4166C9.96572 46.5526 13.172 46.6345 16.3772 46.7364ZM26.648 18.6369C26.5282 16.6614 26.4882 14.847 26.2895 13.0493C26.0986 11.3216 25.8878 9.57311 25.4257 7.90283C24.7613 5.5004 23.1951 3.81661 20.6368 3.17369C19.3261 2.81616 17.9425 2.8035 16.6253 3.13696C13.8349 3.88095 11.8261 5.4524 10.9205 8.25234C10.0347 10.9914 9.55968 13.8028 9.20738 16.642C9.12843 17.2796 9.07613 17.9204 9.00072 18.6671L11.2424 18.3937C11.3466 16.8253 11.432 15.3655 11.5397 13.9072C11.6532 12.3726 11.8766 10.8512 12.4378 9.40731C13.3261 7.12207 15.7118 5.43651 18.2384 5.47816C20.7651 5.51981 22.6595 6.67148 23.6355 9.04573C23.9334 9.75311 24.1926 10.4756 24.412 11.2099C24.942 13.0405 25.0016 14.9241 24.9993 16.8124C24.9993 17.3582 25.0382 17.9037 25.0618 18.4956L26.648 18.6369ZM21.6351 18.2306C21.613 16.3086 21.8174 14.3613 21.4753 12.4323C21.3082 11.4735 21.0378 10.5347 20.6688 9.63171C20.1099 8.28053 18.7284 7.74072 17.3136 8.21132C16.7654 8.37349 16.2648 8.66169 15.8533 9.05192C15.4418 9.44214 15.1314 9.92312 14.948 10.4547C14.0586 12.9356 13.9272 15.5399 13.5522 18.2306H21.6351Z" fill="#193157"/>
<path d="M15.5708 38.6622C15.5237 37.7996 15.5577 36.9787 14.89 36.222C14.2398 35.4854 14.4173 34.3202 15.0714 33.5066C15.6929 32.7338 16.6044 32.5062 17.6462 32.8623C19.4287 33.4721 19.8908 34.8208 18.7758 36.3439C18.6421 36.5201 18.5495 36.7231 18.5047 36.9382C18.4599 37.1534 18.464 37.3758 18.5167 37.5893C18.6538 38.4123 18.6978 39.2476 18.6477 40.0802C18.5764 40.9846 17.8977 41.5728 17.1477 41.5875C16.3608 41.603 15.6969 40.9681 15.5798 40.021C15.5491 39.5685 15.5461 39.1149 15.5708 38.6622Z" fill="#193157"/>
</g>
<defs>
<clipPath id="clip0_627_34591">
<rect width="35" height="49" fill="white"/>
</clipPath>
</defs>
</svg>
